<svg xmlns="http://www.w3.org/2000/svg" viewBox="0 0 37 37" enable-background="new 0 0 37 37"><style type="text/css">.st0{fill:#231F20;} .st1{fill:#00B140;}</style><path class="st0" d="M18.5 2c13.9 0 16.5 2.6 16.5 16.5s-2.6 16.5-16.5 16.5-16.5-2.6-16.5-16.5 2.6-16.5 16.5-16.5m0-2c-14.9 0-18.5 3.6-18.5 18.5s3.6 18.5 18.5 18.5 18.5-3.6 18.5-18.5-3.6-18.5-18.5-18.5z"/><path class="st1" d="M18.5 16c1.4 0 2.5 1.1 2.5 2.5s-1.1 2.5-2.5 2.5-2.5-1.1-2.5-2.5 1.1-2.5 2.5-2.5m0-2c-2.5 0-4.5 2-4.5 4.5s2 4.5 4.5 4.5 4.5-2 4.5-4.5-2-4.5-4.5-4.5z"/></svg>